<svg xmlns="http://www.w3.org/2000/svg" viewBox="0 0 1200 675" font-family="Pretendard, 'Apple SD Gothic Neo', -apple-system, BlinkMacSystemFont, sans-serif"><defs><linearGradient id="bg" x1="0" y1="0" x2="0" y2="1"><stop offset="0" stop-color="#EAF1FE"/><stop offset="0.5" stop-color="#F4F8FF"/><stop offset="1" stop-color="#FFFFFF"/></linearGradient><linearGradient id="bar" x1="0" y1="0" x2="1" y2="0"><stop offset="0" stop-color="#2E6CF0"/><stop offset="1" stop-color="#5B8DF7"/></linearGradient><linearGradient id="barv" x1="0" y1="1" x2="0" y2="0"><stop offset="0" stop-color="#2E6CF0"/><stop offset="1" stop-color="#5B8DF7"/></linearGradient></defs><rect width="1200" height="675" fill="url(#bg)"/><rect x="64" y="56" width="182" height="40" rx="20" fill="#DCE8FE"/><circle cx="86" cy="76" r="5" fill="#2E6CF0"/><text x="100" y="83" font-size="19" font-weight="700" fill="#1F54CC">AI면접 채용 데이터</text><text x="64" y="162" font-size="42" font-weight="800" fill="#142036" letter-spacing="-1.2">데이터로 보는</text><text x="64" y="212" font-size="42" font-weight="800" fill="#142036" letter-spacing="-1.2">2026 채용 현실</text><rect x="145.0" y="424.2" width="120.0" height="135.8" rx="10" fill="url(#barv)"/><text x="205.0" y="408.2" font-size="26" font-weight="800" fill="#2E6CF0" text-anchor="middle">48.5%</text><text x="205.0" y="592" font-size="18" font-weight="600" fill="#566179" text-anchor="middle">AI 의심</text><text x="205.0" y="616" font-size="18" font-weight="600" fill="#566179" text-anchor="middle">자소서</text><rect x="395.0" y="392.0" width="120.0" height="168.0" rx="10" fill="url(#barv)"/><text x="455.0" y="376.0" font-size="26" font-weight="800" fill="#2E6CF0" text-anchor="middle">60%</text><text x="455.0" y="592" font-size="18" font-weight="600" fill="#566179" text-anchor="middle">챗GPT</text><text x="455.0" y="616" font-size="18" font-weight="600" fill="#566179" text-anchor="middle">자소서</text><rect x="645.0" y="322.8" width="120.0" height="237.2" rx="10" fill="url(#barv)"/><text x="705.0" y="306.8" font-size="26" font-weight="800" fill="#2E6CF0" text-anchor="middle">84.7%</text><text x="705.0" y="592" font-size="18" font-weight="600" fill="#566179" text-anchor="middle">조기퇴사</text><text x="705.0" y="616" font-size="18" font-weight="600" fill="#566179" text-anchor="middle">경험 기업</text><rect x="895.0" y="479.6" width="120.0" height="80.4" rx="10" fill="url(#barv)"/><text x="955.0" y="463.6" font-size="26" font-weight="800" fill="#2E6CF0" text-anchor="middle">28.7%</text><text x="955.0" y="592" font-size="18" font-weight="600" fill="#566179" text-anchor="middle">신규입사자</text><text x="955.0" y="616" font-size="18" font-weight="600" fill="#566179" text-anchor="middle">조기퇴사</text><line x1="64" y1="560" x2="1136" y2="560" stroke="#E5EBF5" stroke-width="2"/><text x="64" y="636" font-size="18" fill="#8A93A8">출처: 무하유·진학사 캐치·사람인</text></svg>